<svg width="48" height="48" viewBox="0 0 48 48" fill="none" xmlns="http://www.w3.org/2000/svg">
  <rect width="48" height="48" rx="8" fill="url(#paint0_linear)" />
  <path d="M14 18H34V30C34 32.2091 32.2091 34 30 34H18C15.7909 34 14 32.2091 14 30V18Z" fill="white" fill-opacity="0.4" />
  <path d="M14 14C14 11.7909 15.7909 10 18 10H30C32.2091 10 34 11.7909 34 14V18H14V14Z" fill="white" fill-opacity="0.6" />
  <path d="M20 22C20 21.4477 20.4477 21 21 21H27C27.5523 21 28 21.4477 28 22V28C28 28.5523 27.5523 29 27 29H21C20.4477 29 20 28.5523 20 28V22Z" fill="white" />
  <defs>
    <linearGradient id="paint0_linear" x1="0" y1="0" x2="48" y2="48" gradientUnits="userSpaceOnUse">
      <stop stop-color="#4F46E5" />
      <stop offset="0.5" stop-color="#7366FF" />
      <stop offset="1" stop-color="#8B5CF6" />
    </linearGradient>
  </defs>
</svg> 